<svg width="141" height="40" viewBox="0 0 141 40" fill="none" xmlns="http://www.w3.org/2000/svg">
<g clip-path="url(#clip0_403_3713)">
<path fill-rule="evenodd" clip-rule="evenodd" d="M8 10C8 8.61929 9.11929 7.5 10.5 7.5H14.25C15.6307 7.5 16.75 8.61929 16.75 10V30C16.75 31.3807 15.6307 32.5 14.25 32.5H10.5C9.11929 32.5 8 31.3807 8 30V10ZM14.25 10H10.5V30H14.25V10Z" fill="#00B37E"/>
<path fill-rule="evenodd" clip-rule="evenodd" d="M24.25 10C24.25 8.61929 25.3693 7.5 26.75 7.5H30.5C31.8807 7.5 33 8.61929 33 10V30C33 31.3807 31.8807 32.5 30.5 32.5H26.75C25.3693 32.5 24.25 31.3807 24.25 30V10ZM30.5 10H26.75V30H30.5V10Z" fill="#00B37E"/>
<path fill-rule="evenodd" clip-rule="evenodd" d="M30.5 12.5C30.5 11.8096 31.0596 11.25 31.75 11.25H35.5C36.163 11.25 36.7989 11.5134 37.2678 11.9822C37.7366 12.4511 38 13.087 38 13.75V26.25C38 26.913 37.7366 27.5489 37.2678 28.0178C36.7989 28.4866 36.163 28.75 35.5 28.75H31.75C31.0596 28.75 30.5 28.1904 30.5 27.5C30.5 26.8096 31.0596 26.25 31.75 26.25H35.5L35.5 13.75L31.75 13.75C31.0596 13.75 30.5 13.1904 30.5 12.5Z" fill="#00B37E"/>
<path fill-rule="evenodd" clip-rule="evenodd" d="M3.73223 11.9822C4.20107 11.5134 4.83696 11.25 5.5 11.25H9.25C9.94036 11.25 10.5 11.8096 10.5 12.5C10.5 13.1904 9.94036 13.75 9.25 13.75L5.5 13.75V26.25H9.25C9.94036 26.25 10.5 26.8096 10.5 27.5C10.5 28.1904 9.94036 28.75 9.25 28.75H5.5C4.83696 28.75 4.20108 28.4866 3.73223 28.0178C3.26339 27.5489 3 26.913 3 26.25V13.75C3 13.087 3.26339 12.4511 3.73223 11.9822Z" fill="#00B37E"/>
<path fill-rule="evenodd" clip-rule="evenodd" d="M14.25 20C14.25 19.3096 14.8096 18.75 15.5 18.75H25.5C26.1904 18.75 26.75 19.3096 26.75 20C26.75 20.6904 26.1904 21.25 25.5 21.25H15.5C14.8096 21.25 14.25 20.6904 14.25 20Z" fill="#00B37E"/>
<path fill-rule="evenodd" clip-rule="evenodd" d="M35.5 20C35.5 19.3096 36.0596 18.75 36.75 18.75H39.25C39.9404 18.75 40.5 19.3096 40.5 20C40.5 20.6904 39.9404 21.25 39.25 21.25H36.75C36.0596 21.25 35.5 20.6904 35.5 20Z" fill="#00B37E"/>
<path fill-rule="evenodd" clip-rule="evenodd" d="M0.5 20C0.5 19.3096 1.05964 18.75 1.75 18.75H4.25C4.94036 18.75 5.5 19.3096 5.5 20C5.5 20.6904 4.94036 21.25 4.25 21.25H1.75C1.05964 21.25 0.5 20.6904 0.5 20Z" fill="#00B37E"/>
</g>
<path d="M58.6152 9.59375V29.5H54.5137V9.59375H58.6152ZM66.5449 18.0977V21.2969H57.4941V18.0977H66.5449ZM67.502 9.59375V12.8066H57.4941V9.59375H67.502ZM73.791 14.707V29.5H69.8398V14.707H73.791ZM69.5938 10.8516C69.5938 10.2773 69.7943 9.80339 70.1953 9.42969C70.5964 9.05599 71.1341 8.86914 71.8086 8.86914C72.474 8.86914 73.0072 9.05599 73.4082 9.42969C73.8184 9.80339 74.0234 10.2773 74.0234 10.8516C74.0234 11.4258 73.8184 11.8997 73.4082 12.2734C73.0072 12.6471 72.474 12.834 71.8086 12.834C71.1341 12.834 70.5964 12.6471 70.1953 12.2734C69.7943 11.8997 69.5938 11.4258 69.5938 10.8516ZM84.291 14.707V17.4961H75.6777V14.707H84.291ZM77.8105 11.0566H81.748V25.043C81.748 25.4714 81.8027 25.7995 81.9121 26.0273C82.0306 26.2552 82.2038 26.4147 82.4316 26.5059C82.6595 26.5879 82.9466 26.6289 83.293 26.6289C83.5391 26.6289 83.7578 26.6198 83.9492 26.6016C84.1497 26.5742 84.3184 26.5469 84.4551 26.5195L84.4688 29.418C84.1315 29.5273 83.7669 29.6139 83.375 29.6777C82.9831 29.7415 82.5501 29.7734 82.0762 29.7734C81.2103 29.7734 80.4538 29.6322 79.8066 29.3496C79.1686 29.0579 78.6764 28.5931 78.3301 27.9551C77.9837 27.3171 77.8105 26.4785 77.8105 25.4395V11.0566ZM88.6523 9.59375H92.125L97.2383 24.209L102.352 9.59375H105.824L98.6328 29.5H95.8438L88.6523 9.59375ZM86.7793 9.59375H90.2383L90.8672 23.8398V29.5H86.7793V9.59375ZM104.238 9.59375H107.711V29.5H103.609V23.8398L104.238 9.59375ZM119.045 26.1641V19.5742C119.045 19.1003 118.967 18.6947 118.812 18.3574C118.658 18.0111 118.416 17.7422 118.088 17.5508C117.769 17.3594 117.354 17.2637 116.844 17.2637C116.406 17.2637 116.028 17.3411 115.709 17.4961C115.39 17.6419 115.144 17.8561 114.971 18.1387C114.798 18.4121 114.711 18.7357 114.711 19.1094H110.773C110.773 18.4805 110.919 17.8835 111.211 17.3184C111.503 16.7533 111.926 16.2565 112.482 15.8281C113.038 15.3906 113.699 15.0488 114.465 14.8027C115.24 14.5566 116.105 14.4336 117.062 14.4336C118.211 14.4336 119.232 14.625 120.125 15.0078C121.018 15.3906 121.72 15.9648 122.23 16.7305C122.75 17.4961 123.01 18.4531 123.01 19.6016V25.9316C123.01 26.7428 123.06 27.4082 123.16 27.9277C123.26 28.4382 123.406 28.8848 123.598 29.2676V29.5H119.619C119.428 29.099 119.282 28.5977 119.182 27.9961C119.09 27.3854 119.045 26.7747 119.045 26.1641ZM119.564 20.4902L119.592 22.7188H117.391C116.871 22.7188 116.42 22.778 116.037 22.8965C115.654 23.015 115.34 23.1836 115.094 23.4023C114.848 23.612 114.665 23.8581 114.547 24.1406C114.438 24.4232 114.383 24.7331 114.383 25.0703C114.383 25.4076 114.46 25.7129 114.615 25.9863C114.77 26.2507 114.993 26.4603 115.285 26.6152C115.577 26.7611 115.919 26.834 116.311 26.834C116.903 26.834 117.418 26.7155 117.855 26.4785C118.293 26.2415 118.63 25.9499 118.867 25.6035C119.113 25.2572 119.241 24.929 119.25 24.6191L120.289 26.2871C120.143 26.6608 119.943 27.0482 119.688 27.4492C119.441 27.8503 119.127 28.2285 118.744 28.584C118.361 28.9303 117.901 29.2174 117.363 29.4453C116.826 29.6641 116.188 29.7734 115.449 29.7734C114.51 29.7734 113.658 29.5866 112.893 29.2129C112.136 28.8301 111.535 28.306 111.088 27.6406C110.65 26.9661 110.432 26.2005 110.432 25.3438C110.432 24.569 110.577 23.8809 110.869 23.2793C111.161 22.6777 111.589 22.1719 112.154 21.7617C112.729 21.3424 113.444 21.028 114.301 20.8184C115.158 20.5996 116.151 20.4902 117.281 20.4902H119.564ZM129.982 17.5508V35.1875H126.045V14.707H129.695L129.982 17.5508ZM139.348 21.9395V22.2266C139.348 23.3021 139.22 24.3001 138.965 25.2207C138.719 26.1413 138.354 26.9434 137.871 27.627C137.388 28.3014 136.786 28.8301 136.066 29.2129C135.355 29.5866 134.535 29.7734 133.605 29.7734C132.703 29.7734 131.919 29.5911 131.254 29.2266C130.589 28.862 130.028 28.3516 129.572 27.6953C129.126 27.0299 128.766 26.2598 128.492 25.3848C128.219 24.5098 128.009 23.571 127.863 22.5684V21.8164C128.009 20.7409 128.219 19.7565 128.492 18.8633C128.766 17.9609 129.126 17.1816 129.572 16.5254C130.028 15.86 130.584 15.3451 131.24 14.9805C131.906 14.6159 132.685 14.4336 133.578 14.4336C134.517 14.4336 135.342 14.6113 136.053 14.9668C136.773 15.3223 137.374 15.8327 137.857 16.498C138.35 17.1634 138.719 17.9564 138.965 18.877C139.22 19.7975 139.348 20.8184 139.348 21.9395ZM135.396 22.2266V21.9395C135.396 21.3105 135.342 20.7318 135.232 20.2031C135.132 19.6654 134.968 19.196 134.74 18.7949C134.521 18.3939 134.23 18.084 133.865 17.8652C133.51 17.6374 133.077 17.5234 132.566 17.5234C132.029 17.5234 131.568 17.61 131.186 17.7832C130.812 17.9564 130.507 18.207 130.27 18.5352C130.033 18.8633 129.855 19.2552 129.736 19.7109C129.618 20.1667 129.545 20.6816 129.518 21.2559V23.1562C129.563 23.8307 129.691 24.4368 129.9 24.9746C130.11 25.5033 130.434 25.9225 130.871 26.2324C131.309 26.5423 131.883 26.6973 132.594 26.6973C133.113 26.6973 133.551 26.5833 133.906 26.3555C134.262 26.1185 134.549 25.7949 134.768 25.3848C134.995 24.9746 135.155 24.5007 135.246 23.9629C135.346 23.4251 135.396 22.8464 135.396 22.2266Z" fill="white"/>
<defs>
<clipPath id="clip0_403_3713">
<rect width="40" height="40" fill="white" transform="translate(0.5)"/>
</clipPath>
</defs>
</svg>
